<svg width="64" height="64" viewBox="0 0 64 64" fill="none" xmlns="http://www.w3.org/2000/svg">
<path fill-rule="evenodd" clip-rule="evenodd" d="M26.0708 13.1397C27.3049 13.1397 28.3054 14.1401 28.3054 15.3743V15.5014C31.6733 15.6738 34.2644 18.5187 34.2644 21.8994C34.2644 23.1336 33.264 24.1341 32.0298 24.1341C30.7956 24.1341 29.7952 23.1336 29.7952 21.8994C29.7952 20.7758 28.9411 19.9819 28.0189 19.9628H23.568C23.0037 19.9628 22.3464 20.4897 22.3464 21.3631C22.3464 22.1139 22.5049 22.312 22.5211 22.3322C22.5555 22.3758 22.6856 22.5157 23.2377 22.7117L30.4063 25.2206C31.2678 25.5323 32.3174 26.036 33.1088 27.0484C33.9216 28.0882 34.2346 29.366 34.2346 30.7784C34.2346 33.8975 31.7933 36.648 28.5438 36.648H28.3054V36.7672C28.3054 38.0014 27.3049 39.0019 26.0708 39.0019C24.8366 39.0019 23.8361 38.0014 23.8361 36.7672V36.6434C20.4396 36.5121 17.8771 33.585 17.8771 30.2421C17.8771 29.0079 18.8776 28.0074 20.1117 28.0074C21.3459 28.0074 22.3464 29.0079 22.3464 30.2421C22.3464 31.4099 23.2386 32.1788 24.0745 32.1788H28.5438C29.108 32.1788 29.7654 31.6518 29.7654 30.7784C29.7654 30.0263 29.6061 29.8242 29.5883 29.8016C29.5531 29.7566 29.4266 29.6202 28.8961 29.4272L21.7493 26.9258C20.8744 26.6159 19.8125 26.1149 19.0127 25.1008C18.1899 24.0577 17.8771 22.775 17.8771 21.3631C17.8771 18.244 20.3185 15.4935 23.568 15.4935H23.8361V15.3743C23.8361 14.1401 24.8366 13.1397 26.0708 13.1397Z" fill="black"/>
<path fill-rule="evenodd" clip-rule="evenodd" d="M7.62722 7.62722C12.5109 2.74359 19.1345 0 26.041 0C32.9475 0 39.5711 2.74359 44.4547 7.62722C49.3383 12.5109 52.0819 19.1345 52.0819 26.041C52.0819 32.9475 49.3383 39.5711 44.4547 44.4547C39.5711 49.3383 32.9475 52.0819 26.041 52.0819C19.1345 52.0819 12.5109 49.3383 7.62722 44.4547C2.74359 39.5711 0 32.9475 0 26.041C0 19.1345 2.74359 12.5109 7.62722 7.62722ZM26.041 47.6127C31.7621 47.6127 37.249 45.3399 41.2945 41.2945C45.3399 37.249 47.6127 31.7621 47.6127 26.041C47.6127 20.3198 45.3399 14.833 41.2945 10.7875C37.249 6.742 31.7621 4.46927 26.041 4.46927C20.3198 4.46927 14.833 6.742 10.7875 10.7875C6.742 14.833 4.46927 20.3198 4.46927 26.041C4.46927 31.7621 6.742 37.249 10.7875 41.2945C14.833 45.3399 20.3198 47.6127 26.041 47.6127ZM53.7843 33.7036C54.5054 32.702 55.9019 32.4747 56.9035 33.1958C61.1825 36.2767 64 41.3175 64 47.0168C64 56.385 56.385 64 47.0168 64C41.2506 64 36.2058 61.1457 33.1265 56.8004C32.4129 55.7935 32.6507 54.3987 33.6577 53.6851C34.6646 52.9716 36.0594 53.2094 36.773 54.2163C39.0568 57.4391 42.7718 59.5307 47.0168 59.5307C53.9167 59.5307 59.5307 53.9167 59.5307 47.0168C59.5307 42.824 57.4618 39.105 54.2921 36.8228C53.2905 36.1017 53.0632 34.7052 53.7843 33.7036Z" fill="black"/>
</svg>
